# xmcd
#
# Track frame offsets:
# 150
# 24669
# 49560
# 66132
# 87285
# 105204
# 137210
# 168862
# 186467
# 197284
# 231662
# 257217
# 270322
# 302962
#
# Disc length: 4345 seconds
#
#
# Revision: 1
# Processed by: cddbd v1.4PL0 Copyright (c) Steve Scherf et al.
# Submitted via: FreeRIP 2.00 
#
DISCID=bd10f70e
DTITLE=The High Fidelity - Reference CD No. 33
DYEAR=1999
DGENRE=Jazz
TTITLE0=Love Is All
TTITLE1=Gandalf And The Dwarfs
TTITLE2=Lester Young Oscar Peterson Trio - I Can´t Get Started
TTITLE3=A Foggy Day
TTITLE4=Makin' Whoopee
TTITLE5=In A Mellow Tone
TTITLE6=Sonate No. 2 Pastorale
TTITLE7=Impressõnes Braliseiras For Harptrio And Brazilian Percussion
TTITLE8=Canzonetta "Deh! Veni Alla Finestra" From Don Giovanni
TTITLE9=Ockegheim - Requiem, Tractus
TTITLE10=Quintet No. 2 In C Major, G 420, Allegro Giusto
TTITLE11=Luys De Narváez - Conde Claros
TTITLE12=Coste, Napoléon - Rondeau De Concert, Op. 12
TTITLE13=Sinfina Di Caccia In G Major, Allegro
EXTD=YEAR: 1999
EXTT0=
EXTT1=
EXTT2=
EXTT3=
EXTT4=
EXTT5=
EXTT6=
EXTT7=
EXTT8=
EXTT9=
EXTT10=
EXTT11=
EXTT12=
EXTT13=
PLAYORDER=
